<svg width="10" height="10" viewBox="0 0 10 10" fill="none" xmlns="http://www.w3.org/2000/svg">
<path d="M0.292893 8.07121C-0.0976311 8.46174 -0.0976311 9.0949 0.292893 9.48543C0.683418 9.87595 1.31658 9.87595 1.70711 9.48543L0.292893 8.07121ZM9.48528 1.70725C9.87581 1.31673 9.87581 0.683563 9.48528 0.293039C9.09476 -0.0974852 8.46159 -0.0974855 8.07107 0.293039L9.48528 1.70725ZM1.70711 9.48543L9.48528 1.70725L8.07107 0.293039L0.292893 8.07121L1.70711 9.48543Z" fill="black" fill-opacity="0.7"/>
<path d="M8.29289 9.48543C8.68342 9.87595 9.31658 9.87595 9.70711 9.48543C10.0976 9.0949 10.0976 8.46174 9.70711 8.07121L8.29289 9.48543ZM1.92893 0.29304C1.53841 -0.0974849 0.905242 -0.0974845 0.514718 0.29304C0.124194 0.683564 0.124194 1.31673 0.514718 1.70725L1.92893 0.29304ZM9.70711 8.07121L1.92893 0.29304L0.514718 1.70725L8.29289 9.48543L9.70711 8.07121Z" fill="black" fill-opacity="0.7"/>
</svg>